<?xml version="1.0" standalone="no"?>
<!DOCTYPE svg PUBLIC "-//W3C//DTD SVG 20010904//EN"
 "http://www.w3.org/TR/2001/REC-SVG-20010904/DTD/svg10.dtd">
<svg version="1.0" xmlns="http://www.w3.org/2000/svg"
 width="800.000000pt" height="600.000000pt" viewBox="0 0 800.000000 600.000000"
 preserveAspectRatio="xMidYMid meet">

<g transform="translate(0.000000,600.000000) scale(0.100000,-0.100000)"
fill="#000000" stroke="none">
<path d="M0 3000 l0 -3000 4000 0 4000 0 0 3000 0 3000 -4000 0 -4000 0 0
-3000z m1158 884 c299 -60 541 -349 542 -646 l0 -57 38 -10 c265 -69 300 -70
422 -10 l92 46 -6 -31 c-3 -17 -8 -60 -12 -95 l-7 -63 -66 -32 c-59 -28 -76
-31 -156 -31 -82 0 -101 4 -208 44 -64 24 -118 42 -120 40 -1 -2 -17 -33 -35
-69 -18 -36 -48 -83 -67 -105 l-35 -40 24 55 c68 159 61 369 -19 538 -19 40
-43 85 -54 98 -11 14 -23 39 -27 57 -19 92 -98 167 -175 167 -20 0 -66 14
-101 30 -115 54 -265 73 -388 50 -29 -6 -55 -9 -57 -7 -8 9 83 50 149 67 90
23 166 25 266 4z m-93 -89 c115 -29 222 -92 315 -185 147 -147 201 -267 208
-465 4 -110 2 -127 -22 -199 -62 -184 -202 -315 -388 -362 -84 -22 -249 -14
-331 15 -147 52 -285 159 -372 291 -165 248 -147 561 42 757 109 112 228 162
388 163 57 0 127 -6 160 -15z m1513 -550 c30 -14 81 -42 113 -62 l60 -38 -7
-85 c-3 -47 -8 -86 -9 -88 -2 -2 -41 22 -88 52 -47 31 -108 62 -136 69 -29 7
-52 15 -53 18 0 2 2 39 6 82 8 75 8 77 34 77 15 0 51 -11 80 -25z m458 -232
c-6 -25 -31 -53 -45 -53 -13 1 -29 16 -31 30 -6 43 -1 50 41 50 40 0 41 -1 35
-27z"/>
<path d="M620 3648 c-61 -32 -83 -66 -88 -135 -3 -47 1 -67 20 -103 66 -122
235 -148 311 -48 92 120 -13 308 -173 308 -14 0 -46 -10 -70 -22z m42 -42 c-5
-54 10 -103 41 -136 l24 -25 -26 -57 c-14 -32 -30 -57 -34 -58 -20 0 -69 44
-92 84 -46 79 -26 171 47 216 18 11 35 20 38 20 3 0 4 -20 2 -44z m218 -140
c0 -64 -28 -112 -80 -138 -45 -23 -100 -24 -100 -3 0 60 138 220 172 199 4 -3
8 -29 8 -58z"/>
<path d="M1111 3650 c-76 -18 -124 -81 -124 -164 0 -111 86 -196 199 -196 90
0 152 52 162 135 7 66 -5 108 -44 154 -55 64 -120 88 -193 71z m-1 -54 c0 -34
-1 -34 -31 -26 -43 13 -44 15 -13 39 37 29 44 27 44 -13z m17 -72 c57 -27 127
-99 150 -152 13 -31 12 -35 -4 -48 -48 -36 -138 -30 -192 14 -66 53 -94 128
-75 200 6 20 11 22 38 17 17 -4 54 -18 83 -31z"/>
<path d="M901 3254 c-39 -49 -22 -122 34 -148 57 -27 115 10 115 74 0 81 -103
132 -149 74z m108 -20 c27 -34 27 -78 0 -105 -39 -39 -109 1 -109 64 0 65 70
91 109 41z"/>
<path d="M1271 3220 c-82 -19 -124 -82 -119 -176 4 -68 30 -113 90 -156 49
-34 151 -38 197 -6 50 33 74 80 74 143 0 125 -122 223 -242 195z m42 -57 c-5
-41 -3 -46 8 -32 20 23 75 42 101 35 26 -6 66 -60 70 -95 3 -20 -3 -25 -50
-37 -29 -8 -63 -19 -74 -25 -21 -11 -21 -12 13 -30 19 -10 49 -18 67 -19 39 0
40 -8 5 -42 -31 -30 -72 -48 -108 -48 -19 0 -24 7 -30 46 -3 25 -12 47 -19 50
-7 3 -29 -5 -49 -16 l-36 -22 -20 33 c-11 19 -23 52 -27 75 -12 82 55 174 127
174 26 0 26 -2 22 -47z"/>
<path d="M575 3206 c-132 -57 -123 -260 14 -333 140 -74 288 40 250 192 -29
115 -162 186 -264 141z m70 -166 c18 -25 47 -49 81 -66 73 -36 81 -47 49 -73
-41 -31 -64 -35 -87 -14 -34 30 -106 137 -134 197 -25 56 -26 58 -8 78 11 11
28 24 39 28 18 7 21 2 26 -51 4 -41 14 -71 34 -99z m83 146 c78 -41 124 -152
93 -230 -6 -16 -12 -13 -45 25 -44 51 -74 115 -83 176 -6 47 -4 49 35 29z"/>
<path d="M952 2980 c-46 -11 -100 -66 -113 -114 -20 -75 15 -165 84 -213 55
-38 140 -44 195 -13 134 75 94 289 -62 335 -54 16 -56 16 -104 5z m155 -46
c20 -16 37 -34 37 -38 2 -23 -192 -28 -242 -7 -27 11 -30 16 -20 29 51 62 159
69 225 16z m-115 -123 c26 -40 93 -80 141 -83 41 -3 42 -5 23 -30 -23 -31
-132 -16 -246 33 -41 18 -49 26 -55 56 -3 19 -3 47 0 63 l6 28 55 -18 c42 -12
61 -25 76 -49z"/>
</g>
</svg>
