<?xml version="1.0" standalone="no"?>
<!DOCTYPE svg PUBLIC "-//W3C//DTD SVG 20010904//EN"
 "http://www.w3.org/TR/2001/REC-SVG-20010904/DTD/svg10.dtd">
<svg version="1.0" xmlns="http://www.w3.org/2000/svg"
 width="500.000000pt" height="500.000000pt" viewBox="0 0 500.000000 500.000000"
 preserveAspectRatio="xMidYMid meet">

<g transform="translate(0.000000,500.000000) scale(0.100000,-0.100000)"
fill="#000000" stroke="none">
<path d="M0 2500 l0 -2500 2500 0 2500 0 0 2500 0 2500 -2500 0 -2500 0 0
-2500z m3139 677 c6 -8 7 -17 3 -21 -4 -4 0 -6 8 -4 13 3 15 -54 17 -457 l1
-460 -19 42 c-34 74 -42 147 -34 328 9 249 -12 314 -127 382 l-54 33 -76 -29
c-112 -44 -193 -87 -238 -127 -62 -56 -78 -110 -108 -379 l-8 -70 -12 40 c-21
67 -42 246 -51 436 -4 99 -12 184 -17 189 -13 12 -160 -16 -197 -37 -68 -40
-97 -152 -97 -380 0 -166 -7 -193 -49 -193 -27 0 -45 13 -46 32 0 3 -4 10 -9
15 -5 5 -6 2 -1 -6 5 -10 4 -12 -4 -7 -23 15 -53 91 -58 148 l-6 58 -33 0 -34
0 0 215 c0 216 0 216 25 240 l24 25 594 0 c485 0 597 -2 606 -13z m-169 -227
c12 -8 12 -10 -4 -16 -11 -4 -24 0 -34 10 -15 15 -15 16 3 16 11 0 27 -4 35
-10z m60 -65 c0 -18 -27 -27 -33 -11 -6 16 12 38 25 30 4 -3 8 -11 8 -19z
m-260 -25 c0 -15 -29 -19 -40 -5 -8 10 -8 14 2 18 16 5 38 -2 38 -13z m278
-71 c-8 -5 -15 -2 -19 9 -4 11 0 19 10 23 20 8 28 -20 9 -32z m-222 -6 c-3 -3
-13 -3 -22 1 -13 5 -14 9 -3 22 11 14 13 14 22 -1 5 -9 6 -19 3 -22z m-66 -48
c23 -56 24 -70 21 -190 -7 -226 -6 -369 2 -402 l9 -33 -427 0 -426 0 -24 25
c-24 23 -25 29 -25 164 l0 140 35 -15 c19 -7 64 -14 100 -14 149 0 221 76 240
253 4 37 9 67 10 65 2 -2 11 -69 19 -150 25 -220 52 -288 118 -288 40 0 154
48 187 79 36 34 46 69 65 242 23 204 49 238 96 124z m298 -36 c-9 -6 -14 -3
-16 8 -2 8 2 19 10 24 9 6 14 3 16 -8 2 -8 -2 -19 -10 -24z m-198 17 c0 -19
-27 -28 -33 -11 -7 15 1 25 20 25 7 0 13 -6 13 -14z m6 -101 c-3 -8 -10 -15
-16 -15 -14 0 -12 37 3 43 15 5 21 -8 13 -28z m204 5 c0 -11 -7 -20 -15 -20
-8 0 -15 9 -15 20 0 11 7 20 15 20 8 0 15 -9 15 -20z m-207 -94 c3 -8 0 -17
-8 -19 -7 -3 -15 3 -18 14 -6 22 18 27 26 5z m199 -11 c-2 -14 -11 -25 -18
-25 -17 0 -18 22 -2 38 19 19 26 14 20 -13z m-204 -102 c-2 -10 -11 -19 -20
-21 -12 -2 -15 2 -11 17 7 25 36 28 31 4z m202 -2 c0 -10 -7 -21 -15 -25 -15
-5 -22 24 -8 37 12 13 23 7 23 -12z m7 -91 c-3 -11 -1 -18 4 -14 5 3 9 0 9 -5
0 -6 -2 -11 -4 -11 -2 0 -11 -3 -19 -6 -21 -8 -29 34 -9 46 24 13 25 13 19
-10z m-219 -17 c-5 -25 -28 -28 -28 -4 0 12 6 21 16 21 9 0 14 -7 12 -17z
m262 -103 c-21 -14 -27 -12 -34 7 -9 23 16 36 34 17 13 -13 13 -16 0 -24z
m-250 6 c0 -7 -7 -19 -15 -26 -12 -10 -15 -9 -15 7 0 11 3 23 7 26 11 12 23 8
23 -7z m300 -61 c-7 -9 -15 -13 -17 -11 -7 7 7 26 19 26 6 0 6 -6 -2 -15z
m-1246 -281 c9 -24 7 -27 -9 -10 -17 17 -19 26 -6 26 5 0 12 -7 15 -16z m351
-9 c15 -14 25 -36 25 -52 0 -30 -24 -73 -41 -73 -6 0 -3 7 5 16 38 37 26 109
-19 120 -87 22 -119 -103 -34 -133 27 -9 29 -12 11 -12 -33 -1 -72 42 -72 79
0 38 39 80 75 80 14 0 37 -11 50 -25z m134 -50 c11 -33 25 -59 31 -57 5 1 10
-2 10 -8 0 -5 -6 -10 -14 -10 -8 0 -22 24 -34 58 -11 31 -23 66 -27 77 -6 14
-5 17 3 10 6 -5 20 -37 31 -70z m70 11 c-12 -31 -24 -55 -26 -53 -2 3 6 30 18
61 11 32 23 55 25 53 3 -2 -5 -30 -17 -61z m118 -58 c-2 -24 -4 -5 -4 42 0 47
2 66 4 43 2 -24 2 -62 0 -85z m151 51 l27 -2 -27 -4 c-24 -4 -27 -10 -31 -46
-2 -23 -4 -4 -4 43 0 47 2 68 4 48 4 -33 8 -38 31 -39z m30 64 c-10 -2 -26 -2
-35 0 -10 3 -2 5 17 5 19 0 27 -2 18 -5z m144 -130 c6 -7 20 -14 32 -14 16 -1
17 -2 4 -6 -9 -2 -26 1 -37 7 -19 9 -21 19 -19 83 l2 72 3 -65 c2 -35 9 -70
15 -77z m74 0 c-9 -7 -11 -8 -6 -1 6 7 11 41 12 78 l2 65 3 -64 c3 -49 0 -67
-11 -78z m136 39 c2 -28 0 -52 -4 -52 -5 0 -7 35 -7 78 2 78 6 69 11 -26z
m-1080 18 c2 -39 0 -70 -4 -70 -5 0 -8 29 -8 64 0 42 -4 66 -12 69 -8 4 -7 6
4 6 13 1 17 -11 20 -69z m-43 11 c-6 -18 -13 -30 -15 -28 -2 2 1 18 7 36 6 18
13 30 15 28 2 -2 -1 -18 -7 -36z m-112 -63 c-2 -18 -4 -6 -4 27 0 33 2 48 4
33 2 -15 2 -42 0 -60z m63 15 c0 -16 20 -17 20 -1 0 6 2 9 5 6 7 -7 -5 -38
-15 -38 -7 0 -41 86 -39 99 1 10 28 -53 29 -66z"/>
<path d="M2272 2630 c0 -14 2 -19 5 -12 2 6 2 18 0 25 -3 6 -5 1 -5 -13z"/>
<path d="M3085 2221 c-3 -5 -2 -12 3 -15 5 -3 9 1 9 9 0 17 -3 19 -12 6z"/>
</g>
</svg>
