<?xml version="1.0" standalone="no"?>
<!DOCTYPE svg PUBLIC "-//W3C//DTD SVG 20010904//EN"
 "http://www.w3.org/TR/2001/REC-SVG-20010904/DTD/svg10.dtd">
<svg version="1.0" xmlns="http://www.w3.org/2000/svg"
 width="1000.000000pt" height="780.000000pt" viewBox="0 0 1000.000000 780.000000"
 preserveAspectRatio="xMidYMid meet">
<metadata>
Created by potrace 1.16, written by Peter Selinger 2001-2019
</metadata>
<g transform="translate(0.000000,780.000000) scale(0.100000,-0.100000)"
fill="#000000" stroke="none">
<path d="M4835 5753 c-219 -28 -439 -112 -635 -241 -112 -73 -308 -270 -381
-382 -109 -166 -179 -332 -221 -523 -18 -85 -22 -133 -22 -287 0 -200 14 -294
69 -456 14 -42 24 -78 23 -80 -2 -1 -138 -21 -303 -44 -316 -43 -488 -74 -645
-116 -96 -26 -154 -50 -95 -39 118 21 716 78 1050 99 383 25 1025 47 1025 35
0 -6 -182 -222 -345 -409 -114 -131 -311 -320 -435 -419 -243 -194 -495 -341
-860 -502 l-145 -64 1068 -3 c587 -1 1547 -1 2133 0 l1067 3 -184 85 c-393
182 -693 363 -976 588 -146 116 -402 373 -558 562 l-129 155 110 3 c207 7 826
-24 1289 -63 191 -17 623 -63 665 -71 18 -4 21 -3 10 4 -21 13 -234 67 -362
91 -142 27 -325 55 -528 81 -90 12 -166 23 -168 25 -2 2 10 45 27 97 50 159
65 255 65 438 0 120 -5 191 -18 260 -58 296 -188 543 -401 755 -281 282 -634
428 -1023 424 -76 -1 -150 -4 -167 -6z m406 -89 c277 -48 525 -178 729 -383
117 -117 184 -210 254 -348 150 -298 185 -632 101 -958 -13 -50 -33 -112 -44
-138 -18 -41 -24 -47 -51 -47 -16 0 -30 4 -30 9 0 5 12 39 26 77 181 480 43
1048 -338 1399 -289 265 -682 386 -1066 329 -410 -61 -775 -320 -961 -684
-105 -205 -144 -368 -144 -600 0 -173 17 -276 72 -432 17 -47 31 -89 31 -92 0
-3 -15 -6 -34 -6 l-34 0 -35 108 c-53 162 -62 225 -62 427 0 193 12 276 61
425 108 326 357 618 664 779 115 60 276 116 391 135 118 20 354 20 470 0z
m-118 -181 c58 -18 148 -97 176 -156 63 -130 39 -276 -62 -378 -126 -126 -330
-126 -457 1 -127 127 -128 331 -1 457 94 93 210 119 344 76z m-740 -429 c60
-20 141 -93 175 -158 24 -45 27 -62 27 -146 0 -84 -3 -101 -27 -145 -93 -175
-313 -232 -475 -122 -126 86 -176 265 -113 400 75 160 243 229 413 171z m1514
-14 c114 -56 178 -161 177 -290 -2 -185 -136 -320 -321 -322 -87 0 -153 25
-217 83 -86 78 -122 179 -105 290 35 220 264 338 466 239z m-992 -380 c24 -25
25 -82 1 -109 -61 -68 -172 9 -130 90 26 51 87 60 129 19z m304 15 c31 -15 41
-33 41 -70 0 -13 -3 -31 -6 -40 -10 -24 -60 -46 -89 -39 -31 8 -65 49 -65 78
0 28 26 65 54 76 29 12 33 12 65 -5z m-108 -220 c94 -60 91 -198 -5 -269 -39
-29 -133 -29 -173 0 -80 59 -98 157 -43 232 17 23 31 42 33 42 1 0 20 7 42 15
49 17 98 11 146 -20z m-364 -77 c48 -45 13 -138 -52 -138 -35 0 -85 50 -85 85
0 63 89 98 137 53z m638 16 c24 -10 46 -60 39 -89 -8 -31 -49 -65 -79 -65 -30
0 -71 34 -79 65 -7 27 15 80 36 88 19 8 64 8 83 1z m-970 -205 c115 -54 185
-167 185 -298 l0 -69 -172 -6 c-95 -3 -239 -9 -320 -12 l-146 -6 -7 46 c-24
157 73 312 228 362 61 20 171 12 232 -17z m1476 4 c93 -42 158 -120 185 -224
16 -61 12 -153 -6 -164 -10 -6 -622 14 -629 20 -2 3 -4 36 -3 74 1 140 84 255
222 305 59 21 169 16 231 -11z m-996 -79 c23 -9 48 -62 41 -90 -16 -62 -93
-85 -136 -39 -61 65 10 161 95 129z m339 -15 c56 -44 20 -139 -54 -139 -39 0
-70 29 -76 72 -12 72 70 114 130 67z m-510 -494 c-41 -63 -77 -122 -80 -130
-4 -8 -18 -16 -33 -16 -17 -1 -20 -3 -8 -6 27 -7 20 -23 -10 -24 -24 -2 -25
-2 -5 -6 31 -6 17 -23 -21 -24 l-32 -1 30 -8 c44 -10 10 -22 -51 -17 -38 3
-44 5 -27 11 13 5 19 14 16 22 -3 8 1 14 11 14 9 0 15 6 13 13 -1 7 11 14 28
16 28 4 28 4 7 10 -23 6 -23 6 10 43 18 21 64 78 102 128 58 76 73 90 97 90
l28 0 -75 -115z m653 38 c32 -43 62 -83 68 -89 5 -6 17 -22 25 -34 8 -12 21
-28 28 -36 19 -20 15 -24 -30 -24 -42 0 -44 2 -90 73 -25 39 -60 98 -78 130
l-32 57 25 0 c21 0 38 -16 84 -77z m-1167 -760 c0 -4 -14 -22 -32 -40 l-32
-33 -104 0 c-113 0 -116 3 -50 51 38 27 47 29 130 29 48 0 88 -3 88 -7z m1926
-30 l49 -38 -103 -3 c-102 -3 -104 -2 -143 28 -21 18 -39 36 -39 41 0 5 42 9
94 9 92 0 94 0 142 -37z m-2036 -81 c0 -4 -18 -26 -40 -47 l-41 -40 -110 -3
c-65 -3 -115 0 -121 6 -6 6 11 24 49 51 l58 41 102 0 c57 0 103 -4 103 -8z
m2203 -38 c42 -31 53 -43 41 -48 -20 -8 -162 -8 -202 0 -34 7 -125 78 -114 89
4 3 54 5 112 3 l105 -3 58 -41z m-2364 -93 c19 -12 -90 -97 -133 -104 -51 -8
-231 -6 -245 2 -15 10 107 90 154 102 43 10 207 10 224 0z m2579 -45 c59 -34
80 -51 70 -57 -17 -11 -202 -11 -251 0 -21 5 -63 28 -94 52 -50 37 -54 43 -37
51 10 4 66 7 124 5 l105 -2 83 -49z m-2788 -123 c0 -5 -46 -35 -103 -68 l-102
-60 -174 -4 c-118 -2 -172 0 -170 8 2 5 58 37 124 70 l120 60 153 0 c83 1 152
-2 152 -6z m3107 -55 c67 -34 119 -66 117 -70 -7 -11 -293 -10 -333 2 -37 10
-201 110 -201 122 0 5 66 8 148 8 l147 0 122 -62z"/>
<path d="M0 400 l0 -400 5000 0 5000 0 0 400 0 400 -5000 0 -5000 0 0 -400z
m1395 106 c24 -11 33 -20 29 -30 -5 -14 -9 -14 -34 -1 -36 18 -61 19 -84 2
-28 -21 -9 -45 49 -62 87 -25 108 -74 54 -127 -29 -29 -33 -30 -90 -25 -68 6
-72 8 -64 29 5 13 12 14 40 5 50 -15 100 1 100 33 0 16 -8 28 -25 36 -113 52
-119 58 -106 110 11 42 70 55 131 30z m587 -46 l3 -61 35 30 c19 17 44 30 55
31 16 0 12 -7 -20 -40 l-39 -40 42 -60 c40 -57 41 -60 20 -60 -16 0 -32 14
-53 45 -16 25 -33 45 -37 45 -5 0 -8 -20 -8 -45 0 -38 -3 -45 -20 -45 -19 0
-20 7 -20 130 0 122 1 130 20 130 16 0 19 -8 22 -60z m-1353 -26 c12 -15 21
-40 21 -55 0 -29 0 -29 -65 -29 -72 0 -83 -12 -44 -51 17 -17 30 -20 65 -16
43 4 59 -5 28 -17 -69 -27 -134 19 -134 95 0 87 82 133 129 73z m456 3 c20
-16 28 -35 32 -69 5 -42 3 -50 -25 -78 -41 -40 -83 -41 -123 -1 -84 85 27 226
116 148z m630 -2 c20 -19 25 -34 25 -75 0 -63 -30 -100 -82 -100 -66 0 -103
56 -87 130 16 69 95 94 144 45z"/>
<path d="M986 424 c-50 -50 -21 -144 44 -144 48 0 80 50 66 104 -13 53 -75 75
-110 40z"/>
</g>
</svg>
